<svg width="166" height="26" viewBox="0 0 166 26" fill="none" xmlns="http://www.w3.org/2000/svg">
    <path fill-rule="evenodd" clip-rule="evenodd" d="M15.4423 1.09452L24.5697 10.3466C26.0093 11.806 26.0093 14.1719 24.5697 15.6313L15.4236 24.9055C13.9839 26.3648 11.6499 26.3648 10.2102 24.9055L1.07976 15.6534C-0.359921 14.194 -0.359921 11.8281 1.07976 10.3687L10.2289 1.09452C11.6686 -0.36484 14.0026 -0.36484 15.4423 1.09452ZM12.2171 3.4415L12.1797 3.47625L3.43249 12.343C3.08348 12.6968 3.07413 13.259 3.39821 13.6286L3.43249 13.6665L12.1672 22.5206C12.5162 22.8744 13.0709 22.8839 13.4324 22.5553L13.4698 22.5206L22.2169 13.6539C22.5753 13.2906 22.5753 12.6999 22.2169 12.3335L13.4822 3.47941C13.1332 3.12562 12.5785 3.11615 12.2171 3.44466V3.4415ZM12.993 7.34261L18.4027 12.8294C18.4931 12.921 18.4931 13.0663 18.4027 13.1611L12.9836 18.6542C12.8933 18.7458 12.7468 18.7458 12.6564 18.6542L7.24672 13.1674C7.15635 13.0758 7.15635 12.9305 7.24672 12.8357L12.6658 7.34261C12.7562 7.251 12.9026 7.251 12.993 7.34261Z" fill="#715EC2"/>
    <path d="M37.4926 3.2207L30.1758 22.802H33.5911L35.2334 18.3292H43.5723L45.2395 22.802H48.7109L41.3941 3.2207H37.4926ZM39.3748 7.09338L42.4411 15.2746H36.3614L39.3748 7.09338Z" fill="#715EC2"/>
    <path d="M61.4372 20.0191H53.9864L61.3593 10.966V8.48633H50.0319V11.2692H57.5108L49.9229 20.3476V22.802H61.4372V20.0191Z" fill="#715EC2"/>
    <path d="M64.6661 19.2041C64.6661 22.1197 66.1183 22.9662 68.8107 22.9662C69.6458 22.9662 70.4529 22.8841 71.045 22.7767V20.0222C70.562 20.0759 70.266 20.1044 69.7268 20.1044C68.5707 20.1044 67.8447 19.9685 67.8447 18.6861V11.2692H70.8051V8.48635H67.8447V4.28516H64.6693V8.48635H62.7061V11.2692H64.6693V19.2041H64.6661Z" fill="#715EC2"/>
    <path d="M79.1654 23.1015C81.9918 23.1015 84.223 21.601 85.2202 19.0898L82.4499 18.0253C82.0198 19.4973 80.7547 20.3186 79.1685 20.3186C77.0962 20.3186 75.6441 18.8182 75.401 16.3638H85.3012V15.274C85.3012 11.3476 83.123 8.21094 79.0314 8.21094C74.9398 8.21094 72.3066 11.455 72.3066 15.6562C72.3066 20.0722 75.133 23.1015 79.1685 23.1015H79.1654ZM79.0034 10.9654C81.0476 10.9654 82.0167 12.3268 82.0448 13.9126H75.56C76.043 11.9762 77.3362 10.9654 79.0034 10.9654Z" fill="#715EC2"/>
    <path d="M90.0624 15.6562C90.0624 12.7375 91.5706 11.0191 93.7738 11.0191C95.497 11.0191 96.5441 12.1942 96.9492 13.7483L99.6665 12.2479C98.9124 9.95459 96.8152 8.21094 93.7738 8.21094C89.7383 8.21094 86.834 11.2371 86.834 15.6562C86.834 20.0754 89.7383 23.1015 93.7738 23.1015C96.8401 23.1015 98.9934 21.2725 99.7195 18.954L96.9492 17.5357C96.5472 19.1182 95.497 20.2649 93.7738 20.2649C91.5675 20.2649 90.0624 18.5718 90.0624 15.653V15.6562Z" fill="#715EC2"/>
    <rect x="102.72" y="11.4834" width="2.9916" height="3.03249" fill="#715EC2"/>
    <path d="M126.747 15.5927C126.747 12.674 128.255 10.9556 130.458 10.9556C132.182 10.9556 133.229 12.1307 133.634 13.6848L136.351 12.1844C135.597 9.89111 133.5 8.14746 130.458 8.14746C126.423 8.14746 123.519 11.1736 123.519 15.5927C123.519 20.0119 126.423 23.038 130.458 23.038C133.525 23.038 135.678 21.2091 136.404 18.8905L133.634 17.4722C133.232 19.0548 132.182 20.2014 130.458 20.2014C128.252 20.2014 126.747 18.5083 126.747 15.5896V15.5927Z" fill="#715EC2"/>
    <path d="M142.45 23.1077C139.553 23.1077 137.479 21.5629 137.479 18.8798C137.479 15.8986 140.59 14.7874 143.567 14.3538C144.736 14.1641 146.597 14.0015 146.756 13.9744C146.703 11.6165 145.879 10.7221 144.045 10.7221C142.211 10.7221 141.387 11.6707 141.227 13.0529H138.144C138.277 10.2885 140.483 8.14746 144.125 8.14746C147.527 8.14746 149.893 9.58386 149.893 14.4351V18.4191C149.893 20.3975 149.999 21.8068 150.212 22.8367H147.235C147.155 22.4302 147.075 21.7797 147.075 20.9396C146.304 22.105 144.71 23.1077 142.45 23.1077ZM143.354 20.7499C145.693 20.7499 146.783 19.2864 146.783 16.8743C146.783 16.8472 146.783 16.5491 146.81 16.278L146.092 16.3593C142.557 16.7659 140.935 17.2808 140.935 18.7985C140.935 20.0994 141.892 20.7499 143.354 20.7499Z" fill="#715EC2"/>
    <path d="M152.522 22.8367V10.7492C152.522 10.0175 152.522 9.33995 152.496 8.60819H155.606V9.47546C155.606 9.77358 155.579 10.0717 155.579 10.3698C155.579 10.3969 155.579 10.3969 155.606 10.3969C156.456 9.09603 157.812 8.14746 159.965 8.14746C163.155 8.14746 165.015 10.3427 165.015 14.0015V22.8367H161.773V15.4921C161.773 12.7006 161.108 10.9119 158.928 10.9119C156.722 10.9119 155.765 12.6735 155.765 14.8958V22.8367H152.522Z" fill="#715EC2"/>
    <path d="M115.48 23.1082C111.633 23.1082 108.936 20.7776 108.711 17.2004H111.783C112.133 19.0432 113.506 20.2085 115.579 20.2085C117.678 20.2085 118.801 19.0161 118.801 17.2817C118.801 15.5202 117.528 15.0595 115.53 14.4633L114.356 14.111C111.383 13.2167 109.285 11.672 109.285 8.44709C109.285 5.2222 111.858 2.8916 115.48 2.8916C119.176 2.8916 121.374 5.1138 121.649 8.33869H118.627C118.277 6.794 117.253 5.8726 115.405 5.8726C113.631 5.8726 112.607 6.8753 112.607 8.25739C112.607 9.85629 113.931 10.4254 115.754 11.0487L117.003 11.4823C119.801 12.4579 122.073 13.4064 122.073 17.0649C122.073 20.6692 119.351 23.1082 115.48 23.1082Z" fill="#715EC2"/>
</svg>
