<svg xmlns="http://www.w3.org/2000/svg" width="35" height="35" viewBox="0 0 35 35" fill="none">
    <path fill-rule="evenodd" clip-rule="evenodd" d="M17.5 35C27.165 35 35 27.165 35 17.5C35 7.83502 27.165 0 17.5 0C7.83502 0 0 7.83502 0 17.5C0 27.165 7.83502 35 17.5 35ZM21.0805 7.36896C22.894 7.68722 24.6596 8.25063 26.3319 9.04479C29.2129 13.414 30.6444 18.3418 30.1159 24.0276C28.1692 25.5206 25.9891 26.6544 23.6712 27.3793C23.1492 26.6529 22.6878 25.8818 22.2917 25.0743C23.0462 24.7818 23.7744 24.4212 24.468 23.9965C24.2878 23.8698 24.1096 23.7286 23.9355 23.5812C21.9212 24.5637 19.7227 25.0731 17.4968 25.0731C15.2708 25.0731 13.0723 24.5637 11.0581 23.5812C10.8859 23.7182 10.7077 23.8594 10.5255 23.9965C11.2178 24.4205 11.9446 24.7804 12.6978 25.0722C12.3013 25.88 11.8398 26.6518 11.3183 27.3793C9.00239 26.6515 6.82393 25.5171 4.87762 24.0256C4.42716 19.1227 5.32809 14.1491 8.65155 9.04895C10.3256 8.25465 12.0923 7.6899 13.907 7.36896C14.1551 7.82917 14.3796 8.3026 14.5797 8.78729C16.5115 8.48535 18.476 8.48535 20.4078 8.78729C20.6078 8.30255 20.8323 7.82911 21.0805 7.36896ZM10.976 18.3751C10.976 19.8287 12.0131 21.0103 13.2684 21.0103C14.5477 21.0103 15.5367 19.8287 15.5587 18.3751C15.5808 16.9214 14.5517 15.7294 13.2644 15.7294C11.977 15.7294 10.976 16.9214 10.976 18.3751ZM19.4348 18.3751C19.4348 19.8287 20.4678 21.0103 21.7252 21.0103C23.0045 21.0103 23.9915 19.8287 24.0135 18.3751C24.0356 16.9214 23.0145 15.7294 21.7252 15.7294C20.4358 15.7294 19.4348 16.9214 19.4348 18.3751Z" fill="white"/>
</svg>