<svg xmlns="http://www.w3.org/2000/svg" width="35" height="35" viewBox="0 0 35 35" fill="none">
    <path d="M17.5 0.000937426C12.9078 -0.0479056 8.48492 1.81366 5.20344 5.17651C1.92196 8.53935 0.0503685 13.1283 0 17.9349C0.0176947 21.7334 1.18514 25.4283 3.33464 28.489C5.48415 31.5496 8.50512 33.8184 11.9636 34.9696C12.8386 35.1361 13.1568 34.5866 13.1568 34.1037C13.1568 33.6208 13.1568 32.5551 13.1568 31.0564C8.28864 32.1388 7.25455 28.6586 7.25455 28.6586C6.93047 27.5661 6.24151 26.6321 5.31364 26.0276C3.72273 24.9286 5.44091 24.9452 5.44091 24.9452C5.99081 25.0222 6.51693 25.2285 6.97981 25.5486C7.44269 25.8687 7.83033 26.2943 8.11364 26.7936C8.60735 27.6897 9.41744 28.347 10.3696 28.6242C11.3217 28.9014 12.3397 28.7762 13.2045 28.2756C13.2935 27.3637 13.688 26.5142 14.3182 25.8777C10.4364 25.4281 6.36364 23.8962 6.36364 17.019C6.32892 15.2251 6.9622 13.4874 8.12955 12.1734C7.59791 10.6332 7.66068 8.93678 8.30455 7.44426C8.30455 7.44426 9.78409 6.96136 13.0773 9.27596C15.9439 8.4764 18.9606 8.4764 21.8273 9.27596C25.1682 6.96136 26.6 7.44426 26.6 7.44426C27.2439 8.93678 27.3066 10.6332 26.775 12.1734C27.9695 13.4633 28.6371 15.1893 28.6364 16.9857C28.6364 23.8795 24.5318 25.3948 20.6818 25.8444C21.1034 26.2728 21.429 26.7937 21.6353 27.3695C21.8416 27.9454 21.9235 28.5619 21.875 29.1748V34.087C21.875 34.087 22.1932 35.1361 23.0682 34.9529C26.5169 33.7946 29.5277 31.5253 31.6705 28.469C33.8134 25.4127 34.9787 21.7258 35 17.9349C34.9496 13.1283 33.078 8.53935 29.7966 5.17651C26.5151 1.81366 22.0922 -0.0479056 17.5 0.000937426Z" fill="white"/>
</svg>