<svg xmlns="http://www.w3.org/2000/svg" width="185" height="18" viewBox="0 0 185 18" fill="none">
    <path d="M3.67952 2.14626C3.55888 2.81399 3.43824 3.47217 3.3176 4.12083C3.21707 4.76948 3.13664 5.4849 3.07632 6.26709C3.016 7.04928 2.98584 7.9841 2.98584 9.07154C2.98584 10.4452 3.06627 11.5994 3.22712 12.5342C3.38797 13.4499 3.64936 14.1844 4.01128 14.7377C4.3732 15.2909 4.86581 15.6915 5.48912 15.9396C6.11244 16.1685 6.87648 16.283 7.78128 16.283C7.94213 16.283 8.22364 16.1971 8.62576 16.0254C9.02789 15.8537 9.40993 15.6725 9.77185 15.4817C10.1338 15.2719 10.3348 15.1288 10.375 15.0525C10.4756 14.6327 10.5661 14.1558 10.6465 13.6216C10.747 13.0684 10.8174 12.4292 10.8576 11.7043C10.9179 10.9793 10.9481 10.1304 10.9481 9.15739C10.9481 7.65023 10.8174 6.36247 10.556 5.29412C10.3147 4.22576 9.88244 3.41494 9.25913 2.86169C8.65593 2.28935 7.8014 2.00318 6.69552 2.00318C6.57488 2.00318 6.49445 2.00318 6.45424 2.00318C6.41404 2.00318 6.31349 2.01271 6.15264 2.0318L5.76056 0.314784C5.841 0.276629 5.92141 0.257552 6.00184 0.257552C6.10237 0.238473 6.17276 0.228933 6.21296 0.228933C7.84161 0.228933 9.22897 0.524642 10.375 1.11606C11.5412 1.68839 12.4259 2.5946 13.0291 3.83466C13.6323 5.05565 13.9339 6.65819 13.9339 8.64229C13.9339 9.95866 13.8535 11.132 13.6927 12.1622C13.5318 13.1733 13.3609 14.0032 13.1799 14.6518C12.9185 14.9761 12.5466 15.3386 12.064 15.7393C11.6016 16.1208 11.0989 16.4833 10.556 16.8267C10.0131 17.1701 9.51045 17.4563 9.04801 17.6852C8.58556 17.895 8.24373 18 8.02256 18C6.69552 18 5.52933 17.8378 4.524 17.5135C3.51867 17.1892 2.68424 16.6931 2.02072 16.0254C1.3572 15.3386 0.854533 14.4706 0.51272 13.4213C0.170907 12.3529 0 11.0938 0 9.64388C0 8.32751 0.0804271 7.15421 0.24128 6.12401C0.42224 5.07472 0.643413 4.22576 0.904801 3.57711C1.12597 3.25279 1.41752 2.91892 1.77944 2.57552C2.14136 2.23211 2.51333 1.9078 2.89536 1.60254L3.67952 2.14626ZM5.76056 0.314784H6.51456V14.8521C6.51456 14.9666 6.46429 15.1764 6.36376 15.4817C6.26324 15.7679 6.10237 16.1018 5.8812 16.4833H4.94624V2.77583C4.94624 2.56598 5.02668 2.23211 5.18752 1.77424C5.36848 1.31638 5.55949 0.829889 5.76056 0.314784ZM28.109 1.77424V0.658188C28.3503 0.620031 28.6619 0.581876 29.0439 0.54372C29.4259 0.486487 29.8179 0.438791 30.2202 0.400636C30.6223 0.343402 30.9742 0.305246 31.2758 0.286169C31.5774 0.248012 31.7583 0.228933 31.8187 0.228933C31.879 0.228933 31.9895 0.295707 32.1504 0.429253C32.3112 0.562797 32.452 0.71542 32.5727 0.887121C32.7133 1.03975 32.7838 1.14467 32.7838 1.20191V15.8537L38.4539 16.4547C38.6147 16.4738 38.7655 16.4166 38.9063 16.283C39.0469 16.1304 39.1675 15.8918 39.2682 15.5676C39.3888 15.2433 39.4793 14.8235 39.5396 14.3084C39.6199 13.7933 39.6603 13.1638 39.6603 12.4197C39.6603 11.6184 39.5095 11.0461 39.2079 10.7027C38.9063 10.3593 38.4437 10.1399 37.8205 10.0445L35.1966 9.64388V8.29889H37.3983C37.5189 8.29889 37.6395 8.21304 37.7602 8.04134C37.8808 7.85055 37.9913 7.593 38.0919 7.26868C38.1924 6.94436 38.2729 6.58188 38.3332 6.18124C38.4136 5.76152 38.4539 5.32273 38.4539 4.86486C38.4539 3.94913 38.4136 3.26232 38.3332 2.80445C38.2729 2.3275 38.1421 2.01271 37.9411 1.8601C37.7602 1.70748 37.4987 1.65024 37.157 1.68839L35.2871 1.83148L35.5283 0.228933H36.7649C37.7702 0.228933 38.6147 0.372018 39.2984 0.658188C39.9819 0.925278 40.5048 1.40223 40.8667 2.08903C41.2286 2.75675 41.4095 3.71066 41.4095 4.95072C41.4095 5.1415 41.2989 5.42767 41.0778 5.80922C40.8767 6.19077 40.5851 6.61049 40.2031 7.06836C39.8412 7.52623 39.419 7.9841 38.9364 8.44197V8.61367C40.0825 8.80446 40.9772 9.27186 41.6207 10.0159C42.2842 10.7599 42.616 11.6757 42.616 12.7631C42.616 13.2591 42.5858 13.7266 42.5255 14.1653C42.4651 14.6041 42.3545 14.9666 42.1937 15.2528C42.1132 15.4054 41.9423 15.5962 41.681 15.8251C41.4195 16.0541 41.118 16.2925 40.7762 16.5405C40.4544 16.7886 40.1127 17.027 39.7507 17.256C39.3888 17.4658 39.0469 17.6375 38.7253 17.7711C38.4237 17.9047 38.1723 17.9714 37.9713 17.9714C37.4686 17.9714 36.8955 17.9619 36.2522 17.9428C35.6087 17.9236 34.9553 17.895 34.2918 17.8569C33.6283 17.8188 33.0049 17.7806 32.4219 17.7424C31.8387 17.7043 31.3663 17.6566 31.0043 17.5994C30.944 17.5802 30.8334 17.5135 30.6726 17.399C30.5116 17.2655 30.3508 17.1224 30.19 16.9698C30.0492 16.8172 29.9789 16.7122 29.9789 16.655V2.2035L28.109 1.77424ZM35.2569 0.228933H36.0109V14.8521C36.0109 14.9666 35.9807 15.1288 35.9204 15.3386C35.8601 15.5484 35.7193 15.8442 35.4982 16.2258H34.4426V2.68998C34.4426 2.48013 34.5229 2.14626 34.6839 1.68839C34.8648 1.23052 35.0558 0.744037 35.2569 0.228933ZM57.122 17.7138L57.3331 12.4769H59.022L59.5046 15.5103C59.9067 15.5867 60.3491 15.6725 60.8317 15.7679C61.3342 15.8632 61.8269 15.9587 62.3095 16.0541C62.8121 16.1304 63.2545 16.1971 63.6365 16.2544C64.0185 16.2925 64.2899 16.3116 64.4509 16.3116C64.5513 16.3116 64.7423 16.2352 65.0239 16.0827C65.3255 15.9301 65.6471 15.7488 65.989 15.539C66.3308 15.31 66.6324 15.0811 66.8938 14.8521C67.1753 14.6232 67.3261 14.4324 67.3462 14.2798C67.3864 14.07 67.4165 13.8315 67.4367 13.5644C67.4567 13.2782 67.4669 13.0016 67.4669 12.7345C67.4669 12.4483 67.4467 12.2003 67.4065 11.9905C67.3864 11.7806 67.3462 11.6471 67.2859 11.5898C67.1249 11.38 66.7932 11.1129 66.2906 10.7886C65.8081 10.4642 65.245 10.1113 64.6017 9.72973C63.9783 9.32909 63.3449 8.92846 62.7016 8.52782C62.0782 8.12719 61.5253 7.74563 61.0428 7.38315C60.5802 7.02066 60.2686 6.70588 60.1078 6.43879C60.0675 6.34341 60.0173 6.16216 59.957 5.89507C59.9167 5.6089 59.8865 5.28458 59.8665 4.9221C59.8464 4.54055 59.8262 4.17806 59.8062 3.83466C59.4443 4.10174 59.1627 4.34023 58.9617 4.55008C58.7808 4.74086 58.65 4.93163 58.5696 5.12242C58.5093 5.3132 58.4792 5.54214 58.4792 5.80922C58.4792 6.11447 58.4992 6.38156 58.5395 6.61049C58.5998 6.82034 58.6701 7.02066 58.7506 7.21145C58.9516 7.57393 59.2633 7.89825 59.6856 8.18442C60.1078 8.47059 60.6707 8.85214 61.3745 9.32909C61.8369 9.63435 62.3095 9.94913 62.7921 10.2734C63.2746 10.5787 63.727 10.8839 64.1493 11.1892C64.5915 11.4754 64.9636 11.7424 65.2652 11.9905C65.5668 12.2194 65.7577 12.4197 65.8382 12.5914C65.9387 12.7822 65.9789 13.0016 65.9589 13.2496C65.9589 13.4785 65.9387 13.6693 65.8985 13.8219C65.8181 13.9936 65.6069 14.194 65.2652 14.4229C64.9434 14.6327 64.6418 14.8044 64.3604 14.938C64.3804 14.7091 64.3905 14.4801 64.3905 14.2512C64.4105 14.0223 64.4105 13.8124 64.3905 13.6216C64.3905 13.4308 64.3502 13.2878 64.2699 13.1924C64.1089 12.9825 63.7772 12.7059 63.2746 12.3625C62.7921 12.0191 62.229 11.6471 61.5857 11.2464C60.9421 10.8458 60.2988 10.4356 59.6554 10.0159C59.032 9.59618 58.4892 9.19554 58.0268 8.81399C57.5844 8.41335 57.3229 8.06995 57.2426 7.78378C57.1823 7.57393 57.132 7.33545 57.0918 7.06836C57.0515 6.78219 57.0315 6.48649 57.0315 6.18124C57.0315 5.87599 57.0415 5.58982 57.0616 5.32273C57.1018 5.03657 57.1521 4.7981 57.2125 4.60731C57.3934 4.28299 57.6848 3.93004 58.0871 3.54849C58.4892 3.14785 58.9416 2.75675 59.4443 2.3752C59.967 1.97456 60.4897 1.62163 61.0126 1.31638C61.5555 0.99205 62.0581 0.734498 62.5206 0.54372C63.0032 0.352941 63.3953 0.257552 63.6969 0.257552C63.8175 0.257552 64.0286 0.26709 64.3302 0.286169C64.6518 0.286169 65.0239 0.305246 65.4461 0.343401C65.8884 0.362479 66.3408 0.391096 66.8033 0.429253C67.2859 0.467408 67.7483 0.515102 68.1907 0.572337C68.6329 0.629571 69.025 0.686805 69.3669 0.744037L69.1257 5.66614H67.4367L66.9843 2.74722C66.6827 2.61367 66.3208 2.4992 65.8985 2.40382C65.4963 2.28935 65.0942 2.2035 64.6921 2.14626C64.2899 2.08903 63.9481 2.06041 63.6667 2.06041C63.5057 2.06041 63.3651 2.0795 63.2445 2.11765C63.1238 2.13673 63.0232 2.16535 62.9428 2.2035C62.8825 2.24165 62.8322 2.29888 62.7921 2.3752C62.7116 2.50875 62.6513 2.7186 62.6111 3.00477C62.5909 3.29094 62.5809 3.59619 62.5809 3.92051C62.6009 4.22576 62.6311 4.51193 62.6714 4.77901C62.7116 5.02703 62.7719 5.18918 62.8524 5.2655C63.0937 5.51352 63.4254 5.7806 63.8477 6.06677C64.2899 6.35294 64.7725 6.64864 65.2953 6.95389C65.8382 7.25915 66.3811 7.58347 66.924 7.92687C67.4869 8.25119 67.9996 8.59459 68.4621 8.95707C68.9447 9.30048 69.3468 9.64388 69.6685 9.98728C69.7289 10.2162 69.769 10.5405 69.7892 10.9603C69.8293 11.38 69.8495 11.8283 69.8495 12.3052C69.8495 12.7631 69.8293 13.1924 69.7892 13.593C69.769 13.9936 69.7289 14.2893 69.6685 14.4801C69.4876 14.8426 69.1758 15.2337 68.7336 15.6534C68.2912 16.0541 67.7885 16.4356 67.2256 16.7981C66.6827 17.1606 66.1598 17.4563 65.6573 17.6852C65.1545 17.895 64.7524 18 64.4509 18C64.0688 18 63.5561 17.9905 62.9127 17.9714C62.2893 17.9523 61.6158 17.9236 60.892 17.8855C60.1681 17.8664 59.4744 17.8378 58.8109 17.7997C58.1474 17.7806 57.5844 17.7519 57.122 17.7138ZM87.8508 2.17488C87.7301 2.86169 87.6095 3.52941 87.4888 4.17806C87.3884 4.80763 87.3079 5.49444 87.2476 6.23847C87.1872 6.96343 87.1571 7.82193 87.1571 8.81399C87.1571 10.7409 87.328 12.2194 87.6698 13.2496C88.0317 14.2607 88.5043 14.9571 89.0873 15.3386C89.6905 15.7012 90.3339 15.8824 91.0176 15.8824L95.24 15.8537V17.3418C94.9785 17.4182 94.5563 17.4944 93.9732 17.5707C93.4102 17.6471 92.807 17.7138 92.1636 17.7711C91.5403 17.8474 90.9874 17.9047 90.5048 17.9428C90.0223 17.9809 89.7207 18 89.6 18C88.7154 18 87.8508 17.7138 87.0063 17.1415C86.182 16.5692 85.4983 15.682 84.9554 14.4801C84.4327 13.2591 84.1712 11.7043 84.1712 9.81558C84.1712 8.49921 84.2517 7.2973 84.4125 6.20986C84.5935 5.12242 84.8146 4.25438 85.076 3.60572C85.2971 3.30047 85.5887 2.97615 85.9507 2.63275C86.3126 2.27027 86.6845 1.93641 87.0666 1.63116L87.8508 2.17488ZM89.1175 15.9396V2.77583C89.1175 2.56598 89.198 2.23211 89.3587 1.77424C89.5397 1.31638 89.7307 0.829889 89.9318 0.314784H90.6858V14.3084C90.6858 14.4229 90.6355 14.6327 90.535 14.938C90.4345 15.2242 90.2736 15.5581 90.0524 15.9396H89.1175ZM95.3003 5.46582H93.6716L93.3097 2.5469C93.0684 2.48967 92.7668 2.43243 92.4049 2.3752C92.043 2.31797 91.6911 2.27027 91.3493 2.23211C91.0275 2.19396 90.7561 2.17488 90.535 2.17488C90.3339 2.17488 90.1529 2.18441 89.9921 2.2035C89.8513 2.2035 89.7307 2.21303 89.6302 2.23211L89.9318 0.314784C90.0323 0.276629 90.1128 0.257552 90.1731 0.257552C90.2334 0.238473 90.3037 0.228933 90.3842 0.228933C90.5853 0.228933 90.9874 0.248012 91.5906 0.286169C92.214 0.305246 92.8975 0.333862 93.6415 0.372018C94.3855 0.410175 95.059 0.457868 95.6622 0.515102L95.3003 5.46582ZM111.263 2.43243L109.393 1.54531L109.785 0.228933C110.127 0.248012 110.469 0.26709 110.81 0.286169C111.152 0.305246 111.474 0.333862 111.776 0.372018C112.077 0.391096 112.339 0.419713 112.56 0.457868C112.801 0.496024 112.982 0.53418 113.103 0.572337C113.163 0.591414 113.264 0.667726 113.404 0.801272C113.565 0.934816 113.716 1.0779 113.857 1.23052C113.997 1.38315 114.068 1.48808 114.068 1.54531V15.0811C114.711 15.2719 115.345 15.434 115.968 15.5676C116.591 15.7012 117.225 15.787 117.868 15.8251L120.673 15.5676V16.3402C120.351 16.55 119.969 16.7886 119.527 17.0556C119.084 17.3227 118.682 17.5516 118.32 17.7424C117.979 17.9142 117.767 18 117.687 18C116.702 17.9619 115.787 17.8664 114.942 17.7138C114.118 17.5613 113.354 17.3704 112.65 17.1415C112.57 17.1034 112.409 16.9412 112.168 16.655C111.947 16.3688 111.735 16.0732 111.534 15.7679C111.353 15.4436 111.263 15.2242 111.263 15.1097V2.43243ZM120.371 2.2035L118.501 1.77424V0.658188C118.823 0.600954 119.255 0.543719 119.798 0.486485C120.361 0.410173 120.884 0.352939 121.366 0.314784C121.849 0.25755 122.131 0.228933 122.211 0.228933C122.271 0.228933 122.382 0.295707 122.543 0.429253C122.704 0.562797 122.844 0.71542 122.965 0.887121C123.106 1.03975 123.176 1.14467 123.176 1.20191V15.682L125.046 16.5692L124.654 17.8855C124.212 17.8474 123.759 17.8092 123.297 17.7711C122.854 17.7519 122.452 17.7233 122.09 17.6852C121.749 17.628 121.497 17.5802 121.336 17.5421C121.296 17.523 121.196 17.4372 121.035 17.2846C120.874 17.132 120.723 16.9698 120.582 16.7981C120.442 16.6264 120.371 16.5024 120.371 16.4261V2.2035ZM116.541 0.486485H117.295V14.2226C117.295 14.337 117.245 14.5469 117.144 14.8521C117.044 15.1383 116.883 15.4722 116.662 15.8537H115.727V2.94754C115.727 2.73768 115.807 2.40382 115.968 1.94595C116.149 1.48808 116.34 1.00159 116.541 0.486485ZM146.579 8.1558L149.565 8.67091C149.726 8.68999 149.877 8.64229 150.017 8.52782C150.158 8.39427 150.279 8.17489 150.379 7.86963C150.5 7.54532 150.59 7.1256 150.651 6.61049C150.731 6.09539 150.771 5.46582 150.771 4.72178C150.771 3.53896 150.631 2.7186 150.349 2.26073C150.068 1.80286 149.635 1.61208 149.052 1.68839L146.609 1.97456V0.228933H148.871C149.937 0.228933 150.832 0.372018 151.556 0.658188C152.279 0.925278 152.822 1.41176 153.184 2.11765C153.546 2.80445 153.727 3.78696 153.727 5.06518C153.727 5.54214 153.697 6.00954 153.637 6.46741C153.596 6.9062 153.496 7.25915 153.335 7.52623C153.234 7.67885 153.054 7.87917 152.792 8.12719C152.551 8.35612 152.259 8.59459 151.917 8.84261C151.576 9.09062 151.224 9.32909 150.862 9.55803C150.5 9.76788 150.158 9.93958 149.836 10.0731C149.535 10.2067 149.284 10.2734 149.082 10.2734C148.66 10.2734 148.238 10.2639 147.816 10.2448C147.393 10.2258 146.971 10.2067 146.549 10.1876L146.579 8.1558ZM141 2.2035L139.13 1.77424V0.658188C139.371 0.620031 139.682 0.581876 140.065 0.54372C140.447 0.486487 140.839 0.438791 141.241 0.400636C141.643 0.343402 141.995 0.305246 142.296 0.286169C142.598 0.248012 142.779 0.228933 142.839 0.228933C142.9 0.228933 143.01 0.295707 143.171 0.429253C143.332 0.562797 143.473 0.71542 143.593 0.887121C143.734 1.03975 143.804 1.14467 143.804 1.20191V16.0541L146.398 16.4833L145.825 17.5421C145.624 17.5613 145.312 17.5994 144.89 17.6566C144.488 17.7138 144.076 17.7616 143.654 17.7997C143.231 17.8569 142.859 17.9047 142.538 17.9428C142.236 17.9809 142.065 18 142.025 18C141.965 18 141.854 17.9333 141.693 17.7997C141.532 17.6661 141.371 17.523 141.211 17.3704C141.07 17.2179 141 17.1129 141 17.0556V2.2035ZM151.525 17.2846C151.204 16.6169 150.822 15.8156 150.379 14.8808C149.957 13.9459 149.535 12.9825 149.113 11.9905C148.71 10.9793 148.338 10.0636 147.997 9.24324H151.163V9.6725C151.465 10.4165 151.797 11.1797 152.159 11.9618C152.541 12.725 152.923 13.4595 153.305 14.1653C153.687 14.8521 154.039 15.4912 154.36 16.0827L155.959 16.5405L155.748 17.8855C155.386 17.9047 154.974 17.9047 154.511 17.8855C154.049 17.8664 153.596 17.8283 153.154 17.7711C152.732 17.733 152.37 17.6757 152.068 17.5994C151.767 17.504 151.586 17.399 151.525 17.2846ZM146.278 0.228933H147.032V14.8521C147.032 14.9666 146.981 15.1764 146.881 15.4817C146.78 15.7679 146.619 16.1018 146.398 16.4833H145.463V2.68998C145.463 2.48013 145.544 2.14626 145.704 1.68839C145.885 1.23052 146.076 0.744037 146.278 0.228933ZM170.704 5.69475C170.926 5.29412 171.147 4.94118 171.368 4.63593C171.59 4.31161 171.82 3.99683 172.061 3.69157C172.323 3.36725 172.615 3.00477 172.936 2.60413H173.75C173.69 2.98569 173.641 3.48172 173.6 4.09221C173.56 4.68363 173.53 5.47535 173.509 6.46741C173.49 7.45946 173.479 8.73767 173.479 10.3021C173.479 11.8474 173.479 13.7647 173.479 16.0541L176.073 16.4833L175.5 17.5421C175.3 17.5613 174.998 17.5994 174.595 17.6566C174.193 17.7138 173.78 17.7616 173.358 17.7997C172.936 17.8569 172.565 17.9047 172.242 17.9428C171.941 17.9809 171.76 18 171.699 18C171.639 18 171.53 17.9333 171.368 17.7997C171.207 17.6661 171.047 17.523 170.885 17.3704C170.745 17.2179 170.674 17.1129 170.674 17.0556C170.715 16.3116 170.764 15.5962 170.825 14.9094C170.906 14.2035 170.945 13.3259 170.945 12.2766C170.945 11.4754 170.915 10.6932 170.855 9.93005C170.795 9.14786 170.745 8.40382 170.704 7.69793C170.664 6.97298 170.664 6.30524 170.704 5.69475ZM175.288 9.35771L181.079 9.18601V10.7027L175.288 10.531V9.35771ZM176.706 2.7186V14.8521C176.706 14.9666 176.657 15.1764 176.555 15.4817C176.455 15.7679 176.295 16.1018 176.073 16.4833H175.138V2.7186H176.706ZM169.437 2.11765L169.649 0C170.755 0.0763106 171.941 0.181238 173.207 0.314784C174.495 0.429251 175.741 0.562797 176.947 0.71542C178.174 0.848966 179.251 0.982512 180.174 1.11606C181.1 1.2496 181.763 1.37361 182.165 1.48808C182.206 1.50716 182.276 1.56439 182.376 1.65978C182.497 1.73609 182.608 1.83148 182.708 1.94595C182.828 2.04133 182.93 2.14626 183.009 2.26073C183.09 2.35612 183.13 2.4229 183.13 2.46105V16.0254L185 16.4547V17.5707C184.759 17.6089 184.448 17.6566 184.065 17.7138C183.684 17.7519 183.292 17.7902 182.889 17.8283C182.487 17.8855 182.135 17.9236 181.833 17.9428C181.532 17.9809 181.351 18 181.29 18C181.23 18 181.12 17.9236 180.959 17.7711C180.798 17.6375 180.647 17.4944 180.506 17.3418C180.385 17.1892 180.325 17.0843 180.325 17.027V3.74881L173.6 3.00477L172.604 3.062L172.544 2.8903L169.437 2.11765Z" fill="#EEEDF1"/>
</svg>