<svg width="12" height="12" viewBox="0 0 12 12" fill="none" xmlns="http://www.w3.org/2000/svg">
<path d="M0.933332 12L5.13333 7.8C5.46667 8.06667 5.85 8.27778 6.28333 8.43333C6.71667 8.58889 7.17778 8.66667 7.66667 8.66667C8.87778 8.66667 9.90278 8.24722 10.7417 7.40833C11.5806 6.56944 12 5.54444 12 4.33333C12 3.12222 11.5806 2.09722 10.7417 1.25833C9.90278 0.419445 8.87778 0 7.66667 0C6.45556 0 5.43056 0.419445 4.59167 1.25833C3.75278 2.09722 3.33333 3.12222 3.33333 4.33333C3.33333 4.82222 3.41111 5.28333 3.56667 5.71667C3.72222 6.15 3.93333 6.53333 4.2 6.86667L-9.53674e-07 11.0667L0.933332 12ZM7.66667 7.33333C6.83333 7.33333 6.125 7.04167 5.54167 6.45833C4.95833 5.875 4.66667 5.16667 4.66667 4.33333C4.66667 3.5 4.95833 2.79167 5.54167 2.20833C6.125 1.625 6.83333 1.33333 7.66667 1.33333C8.5 1.33333 9.20833 1.625 9.79167 2.20833C10.375 2.79167 10.6667 3.5 10.6667 4.33333C10.6667 5.16667 10.375 5.875 9.79167 6.45833C9.20833 7.04167 8.5 7.33333 7.66667 7.33333Z" fill="#715EC2"/>
</svg>

